# xmcd
#
# Track frame offsets:
#	150
#	12816
#	25330
#	39083
#	56159
#	67931
#	81166
#	92252
#	112556
#	122785
#	138916
#	150980
#	167084
#	179189
#
# Disc length: 2561 seconds
#
# Revision: 1
# Processed by: cddbd v1.5.1PL2 Copyright (c) Steve Scherf et al.
# Submitted via: audiograbber 1.83.01
#
DISCID=a109ff0e
DTITLE=Various Artist - Die Lustigen Holzhackerbuam
DYEAR=1900
DGENRE=Country
TTITLE0=Alpenland Sepp - Die lustigen Holzhackerbuam
TTITLE1=Original Alpenland Quintett - Aber schön muss sie sein
TTITLE2=Casanovas aus dem Zillertal - Uns ziagt koana die Lederhosn aus
TTITLE3=Original Goldried Quintett - Der Paul und sei Gaul
TTITLE4=Zipfi Zapfi Buam - Edelweiss im Dekolltee
TTITLE5=Alpenland Quintett - Ein Tiroler auf St. Pauli
TTITLE6=Kärntner Spatzen - Steirermen san very good
TTITLE7=Horst Chmela - Her mit meine Hennen
TTITLE8=Die Salzachtaler - Maria und Toni
TTITLE9=Oderländer Musikanten - Zillertaler Hochzeitsmarsch
TTITLE10=Casanovas aus dem Zillertal - Max nochmal
TTITLE11=Bumsti Bumsti - Resi, i hol di mit dem Traktor ab
TTITLE12=Mölltaler Vagabunden - Unser Bernhardiner
TTITLE13=Steiermark Quintett - Logo Logo
EXTD=
EXTT0=
EXTT1=
EXTT2=
EXTT3=
EXTT4=
EXTT5=
EXTT6=
EXTT7=
EXTT8=
EXTT9=
EXTT10=
EXTT11=
EXTT12=
EXTT13=
PLAYORDER=
